<svg width="448" height="436" viewBox="0 0 334.8135980824518 326" class="css-1j8o68f">
			<defs id="SvgjsDefs1001">
				<linearGradient id="SvgjsLinearGradient1019">
					<stop id="SvgjsStop1020" stop-color="#2d388a" offset="0">
					</stop>
					<stop id="SvgjsStop1021" stop-color="#00aeef" offset="1">
					</stop>
				</linearGradient>
			</defs>
			<g id="SvgjsG1007" featurekey="rootContainer" transform="matrix(1,0,0,1,0,0)" fill="#fb9c2a">
				<path xmlns="http://www.w3.org/2000/svg" fill-rule="evenodd" d="M5,65 L167.5,0 L330, 65 L167.5, 10 z M5,246 L167.5,326 L330,241 L167.5, 316 z">
				</path>
			</g>
			<g id="SvgjsG1008" featurekey="symbolFeature-0" transform="matrix(0.65, 0, 0, 0.65, 140, 56)" fill="url(#SvgjsLinearGradient1019)">
				<path xmlns="http://www.w3.org/2000/svg" d="M52.094,93.749c0.001,0,11.108-7.41,0.883-22.909c-4.773-7.235-12.596-14.971-11.701-22.63  c-1.015,0.883-1.937,1.859-2.38,2.453c-1.618,2.169-2.791,4.529-3.392,6.964c-0.697,2.823-0.515,5.795,1.102,8.686  c1.501,2.683,4.107,5.103,6.558,7.537c5.868,5.826,11.036,12.018,9.461,18.607C52.541,92.811,52.5,93.478,52.094,93.749z">
				</path>
				<path xmlns="http://www.w3.org/2000/svg" d="M59.398,79.14c0.001-0.001,17.835-11.897,1.417-36.782C53.152,30.742,40.592,18.321,42.03,6.024  c-1.365,1.194-3.11,2.985-3.821,3.939c-2.598,3.482-4.481,7.271-5.446,11.181c-1.12,4.533-0.827,9.304,1.77,13.946  c2.41,4.308,6.594,8.193,10.53,12.102c9.421,9.355,17.719,19.295,15.19,29.876C60.116,77.635,60.049,78.706,59.398,79.14z">
				</path>
			</g>
			<g id="SvgjsG1009" featurekey="sloganFeature-0" transform="matrix(1.1,0,0,1.1,112.6,203.66)" fill="#137dc5">
				 <text x="20" y="35" >for bbPress</text>
					</text>
			</g>
			
			<g id="SvgjsG1011" featurekey="nameLeftFeature-0" transform="matrix(2.2,0,0,2.2,-2.6,135)" fill="#137dc5">
				<path d="M7.1 12.36 c2.14 0.42 3.18 2.14 3.18 3.74 c0 2.38 -1.6 3.9 -5.04 3.9 l-4.04 0 l0 -14 l4.4 0 c2.62 0 3.88 1.5 3.88 3.28 c0 1.18 -0.58 2.48 -2.38 3.08 z M5.6 6.5600000000000005 l-3.82 0 l0 5.52 l3.82 0 c1.92 0 3.32 -1.14 3.32 -2.78 c0 -1.68 -1.22 -2.74 -3.32 -2.74 z M5.26 19.44 c3.1 0 4.44 -1.24 4.44 -3.32 c0 -1.78 -1.34 -3.48 -4.16 -3.48 l-3.76 0 l0 6.8 l3.48 0 z M18.08 12.36 c2.14 0.42 3.18 2.14 3.18 3.74 c0 2.38 -1.6 3.9 -5.04 3.9 l-4.04 0 l0 -14 l4.4 0 c2.62 0 3.88 1.5 3.88 3.28 c0 1.18 -0.58 2.48 -2.38 3.08 z M16.58 6.5600000000000005 l-3.82 0 l0 5.52 l3.82 0 c1.92 0 3.32 -1.14 3.32 -2.78 c0 -1.68 -1.22 -2.74 -3.32 -2.74 z M16.240000000000002 19.44 c3.1 0 4.44 -1.24 4.44 -3.32 c0 -1.78 -1.34 -3.48 -4.16 -3.48 l-3.76 0 l0 6.8 l3.48 0 z M27.42 6 c3.14 0 4.8 1.94 4.8 4.3 c0 2.42 -1.66 4.34 -4.8 4.34 l-3.68 0 l0 5.36 l-0.58 0 l0 -14 l4.26 0 z M27.5 14.04 c2.52 0 4.14 -1.46 4.14 -3.74 c0 -2.32 -1.62 -3.72 -4.14 -3.72 l-3.76 0 l0 7.46 l3.76 0 z M44.160000000000004 5.76 c1.96 0 3.58 1.34 4.08 2.98 l-0.48 0.18 c-0.56 -1.48 -1.82 -2.6 -3.6 -2.6 c-2 0 -3.36 1.16 -3.36 2.74 c0 1.42 0.96 2.4 2.84 3.14 l1.06 0.4 c2.02 0.82 3.9 1.64 3.9 4.12 c0 2.04 -1.98 3.58 -4.34 3.58 c-2.24 0 -4.2 -1.38 -4.64 -3.42 l0.56 -0.18 c0.48 1.88 2.1 3.04 4.08 3.04 s3.76 -1.26 3.76 -3.04 c0 -2.1 -1.58 -2.84 -3.34 -3.52 l-1.2 -0.48 c-2.18 -0.86 -3.26 -2.02 -3.26 -3.62 c0 -1.86 1.54 -3.32 3.94 -3.32 z M58.540000000000006 6 l0 0.58 l-4.22 0 l0 13.42 l-0.58 0 l0 -13.42 l-4.24 0 l0 -0.58 l9.04 0 z M70.78 6 l-5.14 7.12 l0 6.88 l-0.58 0 l0 -6.88 l-5.12 -7.12 l0.7 0 l4.72 6.56 l4.72 -6.56 l0.7 0 z M73.16000000000001 19.42 l6.94 0 l0 0.58 l-7.52 0 l0 -14 l0.58 0 l0 13.42 z M82.68 19.42 l7.28 0 l0 0.58 l-7.68 0 l-0.18 0 l0 -14 l0.58 0 l7.1 0 l0 0.58 l-7.1 0 l0 6.1 l5.66 0 l0 0.58 l-5.66 0 l0 6.16 z">
				</path>
			</g>
			<g id="SvgjsG1012" featurekey="nameRightFeature-0" transform="matrix(2.2,0,0,2.2,199,135)" fill="#137dc5">
			<path d="M12.1 6 c3.14 0 5.18 1.9 5.18 4.76 c0 2.82 -2.04 4.58 -5.18 4.58 l-1.98 0 l0 4.66 l-2.92 0 l0 -14 l4.9 0 z M11.92 12.82 c1.44 0 2.44 -0.56 2.44 -2.06 c0 -1.48 -1 -2.08 -2.44 -2.08 l-1.8 0 l0 4.14 l1.8 0 z M30.36 20 l-1.06 -2.5 l-6.76 0 l-1.06 2.5 l-3.1 0 l6.22 -14 l2.64 0 l6.24 14 l-3.12 0 z M23.560000000000002 15.120000000000001 l4.72 0 l-2.36 -5.54 z M46.84 18.5 c-1.24 1.12 -2.9 1.7 -4.76 1.7 c-3.92 0 -7.3 -2.94 -7.3 -7.2 s3.38 -7.2 7.3 -7.2 c1.84 0 3.48 0.6 4.68 1.66 l-1.76 1.98 c-0.74 -0.52 -1.74 -0.9 -2.76 -0.9 c-2.52 0 -4.42 1.86 -4.42 4.46 s1.9 4.46 4.42 4.46 c1.06 0 2.1 -0.4 2.86 -1 z M57.800000000000004 20 l-4.34 -6 l-1.72 1.96 l0 4.04 l-3 0 l0 -14 l3 0 l0 6.1 l5.18 -6.1 l3.6 0 l-5.26 5.96 l5.9 8.04 l-3.36 0 z">
			</path>
			</g>
			</svg>